<?xml version="1.0" standalone="no"?>
<!DOCTYPE svg PUBLIC "-//W3C//DTD SVG 20010904//EN"
 "http://www.w3.org/TR/2001/REC-SVG-20010904/DTD/svg10.dtd">
<svg version="1.0" xmlns="http://www.w3.org/2000/svg"
 width="1017.000000pt" height="292.000000pt" viewBox="0 0 1017.000000 292.000000"
 preserveAspectRatio="xMidYMid meet">

<g transform="translate(0.000000,292.000000) scale(0.100000,-0.100000)"
fill="#000000" stroke="none">
<path d="M1020 2220 c0 -5 -18 -10 -40 -10 -22 0 -40 -4 -40 -10 0 -5 -18 -10
-40 -10 -22 0 -40 -4 -40 -10 0 -5 -13 -10 -30 -10 -16 0 -30 -4 -30 -10 0 -5
-13 -10 -30 -10 -16 0 -30 -4 -30 -10 0 -5 -13 -10 -28 -10 -16 0 -34 -8 -42
-20 -8 -11 -22 -20 -32 -20 -10 0 -18 -4 -18 -10 0 -5 -9 -10 -20 -10 -11 0
-20 -4 -20 -10 0 -5 -9 -10 -20 -10 -11 0 -20 -4 -20 -10 0 -5 -9 -10 -20 -10
-11 0 -20 -4 -20 -10 0 -5 -7 -10 -16 -10 -9 0 -29 -13 -44 -30 -15 -16 -33
-30 -39 -30 -17 0 -181 -168 -181 -185 0 -8 -4 -15 -10 -15 -5 0 -10 -18 -10
-40 0 -22 -4 -40 -10 -40 -5 0 -10 -18 -10 -40 0 -22 5 -40 10 -40 6 0 10 -18
10 -40 0 -22 5 -40 10 -40 6 0 10 -9 10 -20 0 -11 5 -20 10 -20 6 0 10 -7 10
-16 0 -9 14 -29 30 -44 17 -15 30 -33 30 -39 0 -16 46 -61 62 -61 8 0 20 -9
28 -20 8 -11 22 -20 32 -20 10 0 18 -4 18 -10 0 -5 9 -10 20 -10 11 0 20 -4
20 -10 0 -5 8 -10 18 -10 10 0 24 -9 32 -20 8 -12 26 -20 42 -20 15 0 28 -4
28 -10 0 -5 9 -10 20 -10 11 0 20 -4 20 -10 0 -5 14 -10 30 -10 17 0 30 -4 30
-10 0 -5 9 -10 20 -10 11 0 20 -4 20 -10 0 -5 14 -10 30 -10 17 0 30 -4 30
-10 0 -5 14 -10 30 -10 17 0 30 -4 30 -10 0 -5 13 -10 28 -10 16 0 34 -8 42
-20 10 -14 26 -20 52 -20 21 0 38 -4 38 -10 0 -5 8 -10 18 -10 10 0 24 -9 32
-20 8 -11 22 -20 32 -20 10 0 18 -4 18 -10 0 -5 9 -10 20 -10 11 0 20 -4 20
-10 0 -5 7 -10 15 -10 21 0 113 -92 97 -98 -7 -2 -12 -10 -12 -19 0 -19 -24
-43 -44 -43 -9 0 -16 -4 -16 -10 0 -5 -9 -10 -20 -10 -11 0 -20 -4 -20 -10 0
-5 -9 -10 -20 -10 -11 0 -20 -4 -20 -10 0 -5 -13 -10 -30 -10 -16 0 -30 -4
-30 -10 0 -5 -18 -10 -40 -10 -22 0 -40 -4 -40 -10 0 -5 -9 -10 -20 -10 -11 0
-20 -4 -20 -10 0 -6 -40 -10 -100 -10 -93 0 -100 1 -100 20 0 11 -4 20 -10 20
-5 0 -10 7 -10 16 0 22 -32 53 -38 36 -2 -6 -10 -12 -19 -12 -29 0 -43 -27
-43 -84 0 -31 5 -56 10 -56 6 0 10 -7 10 -16 0 -28 27 -44 74 -44 25 0 46 -4
46 -10 0 -6 27 -10 60 -10 33 0 60 4 60 10 0 6 30 10 70 10 40 0 70 4 70 10 0
6 18 10 40 10 22 0 40 5 40 10 0 6 14 10 30 10 17 0 30 5 30 10 0 6 9 10 20
10 11 0 20 5 20 10 0 6 9 10 20 10 11 0 20 5 20 10 0 6 7 10 15 10 18 0 85 64
85 80 0 7 18 29 40 50 37 36 40 42 40 94 0 31 -4 56 -10 56 -5 0 -10 7 -10 15
0 19 -44 65 -62 65 -8 0 -20 9 -28 20 -8 11 -22 20 -32 20 -10 0 -18 5 -18 10
0 6 -9 10 -20 10 -11 0 -20 5 -20 10 0 6 -9 10 -20 10 -11 0 -20 5 -20 10 0 6
-9 10 -20 10 -11 0 -20 5 -20 10 0 6 -13 10 -30 10 -16 0 -30 5 -30 10 0 6 -9
10 -20 10 -11 0 -20 5 -20 10 0 6 -9 10 -20 10 -11 0 -20 5 -20 10 0 6 -13 10
-30 10 -16 0 -30 5 -30 10 0 6 -13 10 -30 10 -16 0 -30 5 -30 10 0 6 -9 10
-20 10 -11 0 -20 5 -20 10 0 6 -13 10 -30 10 -16 0 -30 5 -30 10 0 6 -13 10
-30 10 -16 0 -30 5 -30 10 0 6 -13 10 -30 10 -16 0 -30 5 -30 10 0 6 -9 10
-20 10 -11 0 -20 5 -20 10 0 6 -8 10 -18 10 -10 0 -24 9 -32 20 -8 11 -21 20
-30 20 -9 0 -22 9 -30 20 -8 11 -20 20 -27 20 -19 0 -143 126 -143 145 0 8 -4
15 -10 15 -6 0 -10 27 -10 60 0 33 4 60 10 60 6 0 10 11 10 25 0 17 17 43 55
80 30 30 60 55 66 55 6 0 24 14 39 30 15 17 33 30 40 30 7 0 25 14 40 30 15
17 35 30 44 30 9 0 16 5 16 10 0 6 9 10 20 10 11 0 20 5 20 10 0 6 8 10 18 10
10 0 24 9 32 20 10 14 26 20 52 20 21 0 38 5 38 10 0 6 23 10 50 10 28 0 50 5
50 10 0 6 9 10 20 10 11 0 20 -4 20 -10 0 -6 59 -10 156 -10 159 0 184 6 184
42 0 8 9 20 20 28 11 8 20 20 20 28 0 18 -25 42 -44 42 -9 0 -16 5 -16 10 0 6
-18 10 -40 10 -22 0 -40 5 -40 10 0 6 -37 10 -90 10 -53 0 -90 -4 -90 -10z"/>
<path d="M9853 1975 c-15 -17 -17 -105 -3 -105 6 0 10 -9 10 -20 0 -11 5 -20
10 -20 6 0 10 -13 10 -30 0 -16 5 -30 10 -30 6 0 10 -57 10 -150 0 -93 -4
-150 -10 -150 -5 0 -10 -18 -10 -40 0 -22 -4 -40 -10 -40 -5 0 -10 -18 -10
-40 0 -22 -4 -40 -10 -40 -5 0 -10 -9 -10 -20 0 -11 -4 -20 -10 -20 -5 0 -10
-13 -10 -30 0 -16 -4 -30 -10 -30 -5 0 -10 -9 -10 -20 0 -11 -4 -20 -10 -20
-5 0 -10 -9 -10 -20 0 -11 -4 -20 -10 -20 -5 0 -10 -8 -10 -18 0 -10 -9 -24
-20 -32 -11 -8 -20 -21 -20 -28 0 -7 -18 -31 -40 -52 -22 -21 -40 -44 -40 -50
0 -15 -25 -40 -40 -40 -7 0 -25 -13 -40 -30 -15 -16 -34 -30 -42 -30 -7 0 -20
-9 -28 -20 -8 -12 -26 -20 -42 -20 -15 0 -28 -4 -28 -10 0 -6 -40 -10 -100
-10 -60 0 -100 4 -100 10 0 6 -7 10 -15 10 -20 0 -85 65 -85 85 0 8 -4 15 -10
15 -5 0 -10 9 -10 20 0 11 -4 20 -10 20 -6 0 -10 53 -10 140 0 87 4 140 10
140 6 0 10 14 10 30 0 17 5 30 10 30 6 0 10 18 10 40 0 22 5 40 10 40 6 0 10
9 10 20 0 11 5 20 10 20 6 0 10 14 10 30 0 17 5 30 10 30 6 0 10 9 10 20 0 11
5 20 10 20 6 0 10 14 10 30 0 17 5 30 10 30 6 0 10 9 10 20 0 11 5 20 10 20 6
0 10 9 10 20 0 11 5 20 10 20 6 0 10 9 10 20 0 11 5 20 10 20 6 0 10 9 10 20
0 11 5 20 10 20 6 0 10 9 10 20 0 11 5 20 10 20 6 0 10 5 10 10 0 6 -40 10
-100 10 -60 0 -100 -4 -100 -10 0 -6 -30 -10 -70 -10 -40 0 -70 -4 -70 -10 0
-5 -13 -10 -30 -10 -16 0 -30 -4 -30 -10 0 -5 -13 -10 -28 -10 -16 0 -34 -8
-42 -20 -8 -11 -20 -20 -28 -20 -17 0 -62 -45 -62 -62 0 -8 -9 -20 -20 -28
-11 -8 -20 -22 -20 -32 0 -10 -4 -18 -10 -18 -6 0 -10 -32 -10 -75 0 -67 3
-79 25 -100 28 -29 41 -31 61 -11 16 17 20 106 4 106 -5 0 -10 9 -10 20 0 11
-4 20 -10 20 -5 0 -10 9 -10 20 0 11 5 20 10 20 6 0 10 11 10 25 0 29 59 95
85 95 8 0 15 5 15 10 0 6 9 10 20 10 11 0 20 5 20 10 0 6 18 10 40 10 22 0 40
5 40 10 0 6 33 10 80 10 73 0 80 -2 80 -20 0 -11 -4 -20 -10 -20 -5 0 -10 -9
-10 -20 0 -11 -4 -20 -10 -20 -5 0 -10 -9 -10 -20 0 -11 -4 -20 -10 -20 -5 0
-10 -9 -10 -20 0 -11 -4 -20 -10 -20 -5 0 -10 -13 -10 -30 0 -16 -4 -30 -10
-30 -5 0 -10 -9 -10 -20 0 -11 -4 -20 -10 -20 -5 0 -10 -13 -10 -30 0 -16 -4
-30 -10 -30 -5 0 -10 -9 -10 -20 0 -11 -4 -20 -10 -20 -5 0 -10 -13 -10 -30 0
-16 -4 -30 -10 -30 -5 0 -10 -13 -10 -30 0 -16 -4 -30 -10 -30 -5 0 -10 -18
-10 -40 0 -22 -4 -40 -10 -40 -6 0 -10 -53 -10 -140 0 -87 4 -140 10 -140 6 0
10 -13 10 -30 0 -16 5 -30 10 -30 6 0 10 -7 10 -15 0 -20 85 -105 105 -105 8
0 15 -4 15 -10 0 -5 18 -10 40 -10 22 0 40 -4 40 -10 0 -6 27 -10 60 -10 33 0
60 4 60 10 0 6 18 10 40 10 22 0 40 5 40 10 0 6 14 10 30 10 17 0 30 5 30 10
0 6 9 10 20 10 11 0 20 5 20 10 0 6 8 10 18 10 10 0 24 9 32 20 8 11 20 20 27
20 17 0 163 146 163 163 0 7 9 19 20 27 11 8 20 21 20 30 0 9 9 22 20 30 11 8
20 22 20 32 0 10 5 18 10 18 6 0 10 9 10 20 0 11 5 20 10 20 6 0 10 9 10 20 0
11 5 20 10 20 6 0 10 14 10 30 0 17 5 30 10 30 6 0 10 9 10 20 0 11 5 20 10
20 6 0 10 14 10 30 0 17 5 30 10 30 6 0 10 14 10 30 0 17 5 30 10 30 6 0 10
18 10 40 0 22 5 40 10 40 6 0 10 23 10 50 0 28 5 50 10 50 6 0 10 57 10 150 0
93 -4 150 -10 150 -5 0 -10 14 -10 30 0 17 -4 30 -10 30 -5 0 -10 9 -10 20 0
13 -7 20 -20 20 -11 0 -20 5 -20 10 0 15 -33 11 -47 -5z"/>
<path d="M7313 1855 c-7 -8 -13 -21 -13 -30 0 -8 -4 -15 -10 -15 -5 0 -10 -9
-10 -20 0 -11 -4 -20 -10 -20 -5 0 -10 -13 -10 -30 0 -16 -4 -30 -10 -30 -5 0
-10 -13 -10 -30 0 -16 -4 -30 -10 -30 -5 0 -10 -9 -10 -20 0 -11 -4 -20 -10
-20 -5 0 -10 -9 -10 -20 0 -11 -4 -20 -10 -20 -5 0 -10 -9 -10 -20 0 -11 -4
-20 -10 -20 -5 0 -10 -13 -10 -30 0 -16 -4 -30 -10 -30 -5 0 -10 -9 -10 -20 0
-11 -4 -20 -10 -20 -5 0 -10 -9 -10 -20 0 -11 -4 -20 -10 -20 -5 0 -10 -9 -10
-20 0 -11 -4 -20 -10 -20 -5 0 -10 -8 -10 -18 0 -10 -9 -24 -20 -32 -11 -8
-20 -22 -20 -32 0 -10 -4 -18 -10 -18 -5 0 -10 -8 -10 -18 0 -10 -9 -24 -20
-32 -11 -8 -20 -22 -20 -32 0 -10 -4 -18 -10 -18 -5 0 -10 -8 -10 -18 0 -10
-9 -24 -20 -32 -11 -8 -20 -21 -20 -28 0 -8 -13 -27 -30 -42 -16 -15 -30 -33
-30 -39 0 -17 -67 -81 -85 -81 -10 0 -15 -10 -15 -30 0 -16 -4 -30 -10 -30 -5
0 -10 -9 -10 -20 0 -11 -4 -20 -10 -20 -5 0 -10 -11 -10 -25 0 -29 51 -88 58
-67 2 7 10 12 18 12 17 0 104 84 104 100 0 6 25 35 55 65 l55 55 105 0 c63 0
105 4 105 10 0 6 30 10 70 10 40 0 70 4 70 10 0 6 32 10 76 10 78 0 104 -11
104 -44 0 -9 5 -16 10 -16 6 0 10 -7 10 -15 0 -20 65 -85 85 -85 8 0 15 -4 15
-10 0 -5 9 -10 20 -10 11 0 20 -4 20 -10 0 -5 9 -10 20 -10 11 0 20 5 20 10 0
6 23 10 50 10 28 0 50 5 50 10 0 6 7 10 16 10 18 0 44 23 44 40 0 20 -28 40
-54 40 -14 0 -26 5 -26 10 0 14 -37 12 -44 -2 -5 -10 -7 -10 -12 0 -3 6 -12
12 -21 12 -17 0 -43 24 -43 40 0 15 25 40 40 40 20 0 40 28 40 54 0 25 -2 26
-66 26 -67 0 -94 13 -94 44 0 9 -4 16 -10 16 -5 0 -10 18 -10 40 0 22 -4 40
-10 40 -5 0 -10 18 -10 40 0 22 -4 40 -10 40 -5 0 -10 14 -10 30 0 17 -4 30
-10 30 -6 0 -10 27 -10 60 0 33 -4 60 -10 60 -5 0 -10 14 -10 30 0 17 -4 30
-10 30 -5 0 -10 23 -10 50 0 28 -4 50 -10 50 -5 0 -10 14 -10 30 0 17 -4 30
-10 30 -5 0 -10 20 -10 45 0 54 -33 95 -75 95 -14 0 -25 5 -25 10 0 15 -33 11
-47 -5z m33 -279 c8 -8 14 -22 14 -30 0 -9 5 -16 10 -16 6 0 10 -13 10 -30 0
-16 5 -30 10 -30 6 0 10 -18 10 -40 0 -22 5 -40 10 -40 6 0 10 -13 10 -30 0
-16 5 -30 10 -30 6 0 10 -22 10 -50 0 -27 5 -50 10 -50 6 0 10 -22 10 -50 0
-27 5 -50 10 -50 6 0 10 -13 10 -30 l0 -30 -190 0 -190 0 0 40 c0 22 5 40 10
40 6 0 10 9 10 20 0 11 5 20 10 20 6 0 10 14 10 30 0 17 5 30 10 30 6 0 10 8
10 18 0 10 9 24 20 32 11 8 20 22 20 32 0 10 5 18 10 18 6 0 10 9 10 20 0 11
5 20 10 20 6 0 10 9 10 20 0 11 5 20 10 20 6 0 10 9 10 20 0 11 5 20 10 20 6
0 10 8 10 18 0 10 9 24 20 32 12 8 20 26 20 42 0 32 5 34 26 14z"/>
<path d="M3920 1760 c0 -6 -40 -10 -100 -10 -60 0 -100 -4 -100 -10 0 -5 -18
-10 -40 -10 -22 0 -40 -4 -40 -10 0 -5 -18 -10 -40 -10 -22 0 -40 -4 -40 -10
0 -5 -22 -10 -50 -10 -27 0 -50 -4 -50 -10 0 -6 -32 -10 -76 -10 -72 0 -78 -2
-104 -30 -15 -16 -35 -30 -44 -30 -9 0 -16 -4 -16 -10 0 -5 -13 -10 -30 -10
-16 0 -30 -4 -30 -10 0 -5 -11 -10 -25 -10 -26 0 -95 -59 -95 -80 0 -25 49
-60 85 -60 19 0 35 5 35 10 0 6 14 10 30 10 17 0 30 5 30 10 0 6 14 10 30 10
28 0 30 -2 30 -40 0 -22 -4 -40 -10 -40 -6 0 -10 -80 -10 -220 0 -140 4 -220
10 -220 6 0 10 -18 10 -40 0 -22 5 -40 10 -40 6 0 10 -16 10 -35 0 -29 9 -44
45 -80 24 -25 51 -45 60 -45 8 0 15 -4 15 -10 0 -5 9 -10 20 -10 13 0 20 7 20
20 0 11 5 20 10 20 6 0 10 22 10 48 0 36 -5 51 -20 62 -11 8 -20 22 -20 32 0
10 -4 18 -10 18 -5 0 -10 14 -10 30 0 17 -4 30 -10 30 -5 0 -10 18 -10 40 0
22 -4 40 -10 40 -6 0 -10 63 -10 170 0 107 4 170 10 170 6 0 10 18 10 40 0 22
5 40 10 40 6 0 10 18 10 40 0 33 3 40 20 40 11 0 20 5 20 10 0 6 14 10 30 10
17 0 30 5 30 10 0 6 23 10 50 10 28 0 50 5 50 10 0 6 30 10 70 10 40 0 70 4
70 10 0 6 57 10 150 10 93 0 150 -4 150 -10 0 -5 9 -10 20 -10 16 0 20 -7 20
-30 0 -16 -4 -30 -10 -30 -5 0 -10 -7 -10 -15 0 -20 -85 -105 -105 -105 -8 0
-15 -7 -15 -15 0 -19 -44 -65 -62 -65 -8 0 -20 -9 -28 -20 -8 -11 -21 -20 -28
-20 -8 0 -27 -13 -42 -30 -15 -16 -33 -30 -39 -30 -6 0 -41 -29 -76 -65 -55
-55 -65 -70 -65 -100 0 -19 -4 -35 -10 -35 -5 0 -10 -13 -10 -30 0 -16 5 -30
10 -30 6 0 10 -7 10 -15 0 -20 65 -85 85 -85 8 0 15 -4 15 -10 0 -5 18 -10 40
-10 22 0 40 -4 40 -10 0 -6 27 -10 60 -10 33 0 60 4 60 10 0 6 33 10 80 10 47
0 80 4 80 10 0 6 18 10 40 10 22 0 40 5 40 10 0 6 30 10 70 10 40 0 70 4 70
10 0 6 23 10 50 10 28 0 50 5 50 10 0 6 40 10 99 10 70 0 101 4 105 13 5 10 7
10 12 0 4 -9 31 -13 85 -13 72 0 79 2 79 20 0 13 7 20 20 20 13 0 20 7 20 20
0 13 7 20 20 20 24 0 25 6 6 26 -9 8 -35 14 -66 14 -61 0 -80 15 -80 64 0 20
-4 36 -10 36 -5 0 -10 14 -10 30 0 17 5 30 10 30 6 0 10 40 10 100 0 60 4 100
10 100 6 0 10 37 10 90 0 53 -4 90 -10 90 -5 0 -10 14 -10 30 0 23 -4 30 -20
30 -11 0 -20 5 -20 10 0 19 -31 10 -57 -16 -21 -21 -23 -28 -12 -36 11 -7 11
-11 2 -15 -15 -6 -18 -83 -3 -83 6 0 10 -30 10 -70 0 -40 -4 -70 -10 -70 -5 0
-10 -18 -10 -40 0 -22 -4 -40 -10 -40 -6 0 -10 -40 -10 -100 0 -60 4 -100 10
-100 15 0 12 -29 -4 -46 -10 -10 -38 -14 -90 -14 -44 0 -76 -4 -76 -10 0 -15
-57 -12 -64 3 -5 10 -7 10 -12 0 -4 -9 -37 -13 -115 -13 -66 0 -109 -4 -109
-10 0 -6 -55 -10 -146 -10 -155 0 -174 5 -174 50 0 22 41 70 60 70 6 0 33 23
60 50 27 28 54 50 59 50 17 0 221 208 221 225 0 8 5 15 10 15 6 0 10 9 10 20
0 11 5 20 10 20 6 0 10 9 10 20 0 11 5 20 10 20 6 0 10 14 10 30 0 17 5 30 10
30 6 0 10 16 10 35 0 27 -8 44 -35 70 -19 19 -41 35 -50 35 -8 0 -15 5 -15 10
0 6 -22 10 -50 10 -27 0 -50 5 -50 10 0 6 -30 10 -70 10 -40 0 -70 -4 -70 -10z"/>
<path d="M2160 1720 c0 -5 -18 -10 -40 -10 -22 0 -40 -4 -40 -10 0 -5 -22 -10
-50 -10 -27 0 -50 -4 -50 -10 0 -5 -13 -10 -30 -10 -16 0 -30 -4 -30 -10 0 -5
-18 -10 -40 -10 -22 0 -40 -4 -40 -10 0 -5 -9 -10 -20 -10 -11 0 -20 -4 -20
-10 0 -5 -18 -10 -40 -10 -22 0 -40 -4 -40 -10 0 -5 -9 -10 -20 -10 -11 0 -20
-4 -20 -10 0 -5 -13 -10 -30 -10 -16 0 -30 -4 -30 -10 0 -5 -7 -10 -15 -10
-20 0 -105 -85 -105 -105 0 -8 -4 -15 -10 -15 -5 0 -10 -9 -10 -20 0 -11 5
-20 10 -20 6 0 10 -7 10 -16 0 -8 7 -23 16 -31 13 -13 17 -14 24 -3 7 11 11
10 24 -3 18 -18 23 -147 6 -147 -6 0 -10 -57 -10 -150 0 -93 4 -150 10 -150 6
0 10 -18 10 -40 0 -22 5 -40 10 -40 6 0 10 -11 10 -25 0 -29 71 -108 78 -87 5
16 39 16 46 0 5 -10 7 -10 12 0 3 6 14 12 25 12 10 0 19 5 19 10 0 6 9 10 20
10 11 0 20 5 20 10 0 6 7 10 16 10 22 0 53 32 36 38 -6 2 -12 12 -12 23 0 17
-8 19 -70 19 l-70 0 0 40 c0 22 -4 40 -10 40 -6 0 -10 63 -10 170 0 107 4 170
10 170 6 0 10 9 10 20 0 11 -4 20 -10 20 -5 0 -10 9 -10 20 0 11 5 20 10 20 6
0 10 14 10 30 0 17 5 30 10 30 6 0 10 11 10 25 0 29 40 75 65 75 8 0 15 5 15
10 0 6 14 10 30 10 17 0 30 5 30 10 0 6 18 10 40 10 22 0 40 5 40 10 0 6 23
10 50 10 28 0 50 5 50 10 0 6 50 10 130 10 80 0 130 -4 130 -10 0 -5 14 -10
30 -10 17 0 30 -4 30 -10 0 -5 7 -10 16 -10 42 0 59 -65 24 -90 -11 -8 -20
-20 -20 -28 0 -18 -25 -42 -44 -42 -9 0 -16 -4 -16 -10 0 -5 -9 -10 -20 -10
-11 0 -20 -4 -20 -10 0 -5 -9 -10 -20 -10 -11 0 -20 -4 -20 -10 0 -5 -9 -10
-20 -10 -11 0 -20 -4 -20 -10 0 -5 -9 -10 -20 -10 -11 0 -20 -4 -20 -10 0 -5
-9 -10 -20 -10 -11 0 -20 -4 -20 -10 0 -5 -9 -10 -20 -10 -11 0 -20 -4 -20
-10 0 -5 -9 -10 -20 -10 -11 0 -20 -4 -20 -10 0 -5 -13 -10 -28 -10 -16 0 -34
-8 -42 -20 -8 -12 -26 -20 -42 -20 -15 0 -28 -4 -28 -10 0 -5 -9 -10 -20 -10
-11 0 -20 -4 -20 -10 0 -5 -12 -10 -26 -10 -55 0 -71 -54 -29 -95 24 -25 55
-33 55 -15 0 6 14 10 30 10 17 0 30 5 30 10 0 6 9 10 20 10 11 0 20 5 20 10 0
6 9 10 20 10 11 0 20 5 20 10 0 6 9 10 20 10 11 0 20 5 20 10 0 6 9 10 20 10
11 0 20 5 20 10 0 6 14 10 30 10 17 0 30 5 30 10 0 6 9 10 20 10 11 0 20 5 20
10 0 6 9 10 20 10 11 0 20 5 20 10 0 6 9 10 20 10 11 0 20 5 20 10 0 6 9 10
20 10 11 0 20 5 20 10 0 6 8 10 18 10 10 0 24 9 32 20 8 11 21 20 28 20 7 0
31 18 52 40 21 22 46 40 54 40 9 0 16 8 16 18 0 10 9 24 20 32 11 8 20 21 20
30 0 9 9 22 20 30 31 22 28 113 -5 145 -13 14 -30 25 -37 25 -8 0 -20 9 -28
20 -8 12 -26 20 -42 20 -15 0 -28 5 -28 10 0 6 -9 10 -20 10 -11 0 -20 5 -20
10 0 6 -18 10 -40 10 -22 0 -40 5 -40 10 0 15 -57 12 -64 -2 -5 -10 -7 -10
-12 0 -7 14 -84 17 -84 2z"/>
<path d="M6040 1720 c0 -6 -26 -10 -58 -10 -46 0 -60 -4 -72 -20 -12 -16 -26
-20 -72 -20 -32 0 -58 -4 -58 -10 0 -5 -18 -10 -40 -10 -22 0 -40 -4 -40 -10
0 -6 -37 -10 -90 -10 -53 0 -90 -4 -90 -10 0 -6 -47 -10 -120 -10 -73 0 -120
-4 -120 -10 0 -6 -33 -10 -80 -10 -47 0 -80 -4 -80 -10 0 -6 -27 -10 -60 -10
-33 0 -60 -4 -60 -10 0 -5 -22 -10 -50 -10 -27 0 -50 -4 -50 -10 0 -5 -9 -10
-20 -10 -13 0 -20 -7 -20 -19 0 -11 -6 -22 -12 -25 -10 -5 -10 -7 0 -12 6 -3
12 -12 12 -21 0 -30 27 -43 94 -43 37 0 66 4 66 10 0 6 23 10 50 10 28 0 50 5
50 10 0 15 29 12 46 -4 8 -8 14 -26 14 -40 0 -14 5 -26 10 -26 6 0 10 -53 10
-140 0 -87 4 -140 10 -140 6 0 10 -30 10 -70 0 -40 4 -70 10 -70 6 0 10 -9 10
-20 0 -11 5 -20 10 -20 6 0 10 -7 10 -15 0 -19 64 -85 82 -85 8 0 20 9 28 20
8 11 22 20 32 20 10 0 18 5 18 10 0 6 9 10 20 10 13 0 20 7 20 18 0 10 9 24
20 32 15 11 20 26 20 62 l0 48 -60 0 c-53 0 -60 2 -60 20 0 11 -4 20 -10 20
-6 0 -10 63 -10 170 0 107 -4 170 -10 170 -5 0 -10 9 -10 20 0 16 7 20 30 20
17 0 30 5 30 10 0 6 14 10 30 10 17 0 30 5 30 10 0 6 9 10 20 10 11 0 20 5 20
10 0 6 9 10 20 10 11 0 20 -4 20 -10 0 -5 18 -10 40 -10 22 0 40 5 40 10 0 6
33 10 80 10 47 0 80 4 80 10 0 6 14 10 30 10 17 0 30 5 30 10 0 6 43 10 110
10 67 0 110 -4 110 -10 0 -5 -4 -10 -10 -10 -5 0 -10 -9 -10 -20 0 -11 -4 -20
-10 -20 -5 0 -10 -17 -10 -38 0 -26 -6 -42 -20 -52 -11 -8 -20 -22 -20 -32 0
-10 -4 -18 -10 -18 -5 0 -10 -18 -10 -40 0 -22 -4 -40 -10 -40 -6 0 -10 -27
-10 -60 0 -33 -4 -60 -10 -60 -5 0 -10 -22 -10 -50 0 -27 5 -50 10 -50 6 0 10
-22 10 -50 0 -27 5 -50 10 -50 6 0 10 -7 10 -15 0 -25 66 -85 94 -85 13 0 27
-6 30 -12 5 -10 7 -10 12 0 3 6 19 12 35 12 16 0 29 5 29 10 0 6 7 10 16 10 8
0 33 18 54 40 21 22 43 40 49 40 15 0 181 166 181 181 0 16 26 39 44 39 12 0
16 -10 16 -40 0 -22 5 -40 10 -40 6 0 10 -18 10 -40 0 -22 5 -40 10 -40 6 0
10 -7 10 -15 0 -20 65 -85 85 -85 8 0 15 -4 15 -10 0 -5 9 -10 20 -10 11 0 20
5 20 10 0 6 9 10 20 10 11 0 20 5 20 10 0 6 7 10 16 10 25 0 44 26 44 60 0 41
-20 60 -64 60 -33 0 -36 2 -36 30 0 17 -4 30 -10 30 -6 0 -10 60 -10 160 0
100 -4 160 -10 160 -5 0 -10 23 -10 50 0 28 -4 50 -10 50 -5 0 -10 9 -10 20 0
15 -7 20 -29 20 -16 0 -31 5 -33 12 -6 16 -78 -56 -78 -77 0 -8 -4 -15 -10
-15 -6 0 -10 -27 -10 -60 0 -33 -4 -60 -10 -60 -5 0 -10 -9 -10 -20 0 -11 -4
-20 -10 -20 -5 0 -10 -9 -10 -20 0 -11 -4 -20 -10 -20 -5 0 -10 -9 -10 -20 0
-11 -4 -20 -10 -20 -5 0 -10 -9 -10 -20 0 -11 -4 -20 -10 -20 -5 0 -10 -7 -10
-15 0 -19 -144 -165 -163 -165 -7 0 -19 -9 -27 -20 -15 -21 -70 -28 -70 -10 0
6 -7 10 -16 10 -36 0 -44 25 -44 144 0 71 4 116 10 116 6 0 10 14 10 30 0 17
5 30 10 30 6 0 10 14 10 30 0 17 5 30 10 30 6 0 10 14 10 30 0 17 5 30 10 30
6 0 10 18 10 40 0 22 5 40 10 40 15 0 12 49 -4 66 -8 8 -26 14 -40 14 -32 0
-33 7 -4 31 l21 19 -21 19 c-12 10 -22 26 -22 35 0 9 -8 16 -20 16 -11 0 -20
-4 -20 -10z"/>
<path d="M7973 1675 c-32 -33 -45 -85 -23 -85 6 0 10 -9 10 -20 0 -11 5 -20
10 -20 15 0 12 -57 -2 -64 -10 -5 -10 -7 0 -12 14 -7 17 -104 2 -104 -5 0 -10
-22 -10 -50 0 -27 -4 -50 -10 -50 -6 0 -10 -53 -10 -138 0 -126 2 -139 20
-152 11 -8 20 -20 20 -28 0 -22 68 -82 94 -82 13 0 27 -6 30 -12 5 -10 7 -10
12 0 4 8 29 12 75 12 39 0 69 4 69 10 0 6 17 10 38 10 26 0 42 6 52 20 8 11
22 20 32 20 10 0 18 5 18 10 0 6 9 10 20 10 11 0 20 5 20 10 0 6 9 10 20 10
11 0 20 5 20 10 0 6 9 10 20 10 11 0 20 5 20 10 0 6 9 10 20 10 11 0 20 5 20
10 0 6 9 10 20 10 13 0 20 7 20 18 0 10 9 24 20 32 12 8 20 26 20 42 0 24 -4
28 -30 28 -16 0 -30 -4 -30 -10 0 -5 -9 -10 -20 -10 -11 0 -20 -4 -20 -10 0
-5 -9 -10 -20 -10 -11 0 -20 -4 -20 -10 0 -5 -13 -10 -30 -10 -16 0 -30 -4
-30 -10 0 -5 -9 -10 -20 -10 -11 0 -20 -4 -20 -10 0 -5 -13 -10 -30 -10 -16 0
-30 -4 -30 -10 0 -5 -9 -10 -20 -10 -11 0 -20 -4 -20 -10 0 -6 -35 -10 -86
-10 -94 0 -114 10 -114 54 0 14 -4 26 -10 26 -6 0 -10 33 -10 80 0 47 4 80 10
80 6 0 10 14 10 30 0 17 5 30 10 30 6 0 10 30 10 70 0 40 4 70 10 70 6 0 10
37 10 90 0 53 -4 90 -10 90 -5 0 -10 12 -10 26 0 37 -22 54 -72 53 -35 0 -49
-6 -75 -34z"/>
<path d="M2761 1643 c-19 -20 -21 -27 -10 -35 11 -7 11 -11 2 -15 -15 -6 -18
-83 -3 -83 6 0 10 -22 10 -50 0 -27 -4 -50 -10 -50 -6 0 -10 -27 -10 -60 0
-33 -4 -60 -10 -60 -6 0 -10 -40 -10 -100 0 -60 4 -100 10 -100 6 0 10 -18 10
-40 0 -22 5 -40 10 -40 6 0 10 -7 10 -15 0 -9 11 -27 25 -40 41 -42 155 -31
155 15 0 6 -18 29 -40 50 -22 21 -40 46 -40 54 0 9 -4 16 -10 16 -6 0 -10 27
-10 60 0 33 4 60 10 60 6 0 10 40 10 100 0 60 4 100 10 100 6 0 10 37 10 90 0
53 -4 90 -10 90 -5 0 -10 14 -10 30 0 23 -4 30 -20 30 -11 0 -20 5 -20 10 0
19 -35 9 -59 -17z"/>
</g>
</svg>
